<svg width="98" height="73" viewBox="0 0 98 73" fill="none" xmlns="http://www.w3.org/2000/svg">
<g clip-path="url(#clip0_148737_1306)">
<path d="M84.3263 42.0183C80.917 42.0358 77.9536 42.8513 75.4726 44.057C74.5619 42.2662 73.6516 40.6708 73.4912 39.5006C73.3124 38.1356 73.0984 37.3022 73.3124 35.6711C73.5268 34.04 74.4907 31.7173 74.4727 31.5401C74.4551 31.363 74.2584 30.5295 72.2949 30.5121C70.3315 30.4942 68.6356 30.8843 68.4392 31.3983C68.2428 31.9124 67.8681 33.0826 67.6181 34.2879C67.2789 36.0612 63.6912 42.3901 61.6386 45.7056C60.9778 44.4117 60.4067 43.2768 60.2815 42.3727C60.1031 41.0077 59.8887 40.1743 60.1031 38.5432C60.3175 36.9121 61.2814 34.5898 61.2634 34.4122C61.2454 34.2351 61.049 33.4016 59.0856 33.3842C57.1217 33.3663 55.4259 33.7564 55.2299 34.2704C55.0335 34.7848 54.8191 35.9901 54.4088 37.1604C53.998 38.3307 49.232 48.8974 47.9825 51.6273C47.4775 52.7322 46.9478 53.8259 46.3938 54.9074C46.3938 54.9074 46.3758 54.9606 46.3222 55.0492C46.1482 55.3883 45.9698 55.7252 45.7871 56.0598V56.0773C45.5191 56.5563 45.2335 56.9993 45.0907 56.9993C44.9835 56.9993 44.7871 55.7229 45.1263 53.9854C45.8403 50.3156 47.5361 44.6068 47.5185 44.4117C47.5185 44.3053 47.8397 43.3125 46.4118 42.7981C45.0191 42.2841 44.5196 43.135 44.3944 43.135C44.2696 43.135 44.18 43.4365 44.18 43.4365C44.18 43.4365 45.7335 37.0186 41.217 37.0186C38.3969 37.0186 34.5052 40.0857 32.5773 42.8513C30.3858 44.0358 28.1961 45.2237 26.0083 46.415C24.9555 47.0002 23.8664 47.5853 22.8489 48.1347C22.7773 48.064 22.7061 47.975 22.6346 47.9043C17.1722 42.1069 7.06901 38.0113 7.49738 30.2284C7.65816 27.3917 8.6397 19.9453 26.901 10.9036C41.931 3.54578 53.8912 5.58446 55.9618 10.1055C58.9248 16.5592 49.5535 28.5441 34.0232 30.2813C28.0969 30.9375 24.9908 28.668 24.2056 27.8171C23.3845 26.9305 23.2593 26.8773 22.9557 27.0548C22.4562 27.321 22.7773 28.1186 22.9557 28.5795C23.4201 29.7847 25.3299 31.9124 28.5609 32.9587C31.417 33.8803 38.3609 34.3947 46.7686 31.1679C56.1758 27.551 63.5304 17.4987 61.3706 9.07743C59.2104 0.531867 44.9299 -2.287 31.417 2.48196C23.3845 5.31907 14.6732 9.78652 8.40771 15.6018C0.963921 22.5159 -0.214376 28.5262 0.267585 31.044C1.99943 39.9792 14.4056 45.7945 19.368 50.1027C19.118 50.2445 18.8857 50.3688 18.6897 50.4753C16.2083 51.6984 6.74745 56.6092 4.39124 61.804C1.71385 67.69 4.81999 71.9099 6.87263 72.4768C13.2453 74.2322 19.7964 71.0765 23.3129 65.8638C26.8294 60.6516 26.401 53.8789 24.7768 50.7764C24.7588 50.741 24.7412 50.7053 24.7052 50.6699C25.3479 50.2977 26.0083 49.9076 26.651 49.5354C27.8323 48.8418 29.0286 48.1738 30.2391 47.5317C29.632 49.1807 29.1856 51.1486 28.9716 53.9854C28.7037 57.3186 30.078 61.6443 31.881 63.3461C32.6845 64.0913 33.6305 64.1088 34.2376 64.1088C36.3438 64.1088 37.2901 62.3712 38.3433 60.3147C39.6284 57.7973 40.7887 54.872 40.7887 54.872C40.7887 54.872 39.3428 62.7792 43.2701 62.7792C44.698 62.7792 46.1438 60.9352 46.7866 59.9957V60.0132C46.7866 60.0132 46.8222 59.96 46.8938 59.836C47.0366 59.6056 47.1257 59.4634 47.1257 59.4634V59.4284C47.6969 58.4353 48.9824 56.1837 50.8922 52.4429C53.3556 47.6207 55.7298 41.5928 55.7298 41.5928C55.7298 41.5928 55.9442 43.0643 56.6758 45.5109C57.1045 46.9469 57.9965 48.5248 58.7108 50.0494C58.1396 50.8475 57.7825 51.2904 57.7825 51.2904L57.8005 51.3083C57.3361 51.9109 56.8366 52.5668 56.283 53.2056C54.3372 55.51 52.0169 58.1521 51.6954 58.914C51.3202 59.8181 51.4098 60.4744 52.1241 61.0063C52.6417 61.3964 53.5696 61.4492 54.5159 61.3964C56.2654 61.2721 57.4969 60.8466 58.1037 60.5808C59.05 60.244 60.1567 59.7295 61.1918 58.9672C63.102 57.5665 64.262 55.5632 64.1552 52.9219C64.1016 51.468 63.6196 50.0141 63.0305 48.6488C63.2092 48.4009 63.3696 48.1526 63.5484 47.9043C66.565 43.5251 68.9036 38.7204 68.9036 38.7204C68.9036 38.7204 69.1179 40.1918 69.8495 42.6388C70.2067 43.8798 70.9386 45.2273 71.581 46.539C68.7428 48.8263 66.9933 51.4855 66.3686 53.223C65.2443 56.4499 66.1186 57.9034 67.7789 58.2403C68.5284 58.4 69.5995 58.0452 70.3851 57.7084C71.3846 57.3894 72.5629 56.84 73.6876 56.024C75.5978 54.6237 77.4361 52.6733 77.3289 50.032C77.2753 48.8263 76.9541 47.6382 76.5078 46.4857C78.9176 45.4934 82.0237 44.9436 85.9862 45.4044C94.4835 46.3972 96.1613 51.6627 95.8398 53.8793C95.5186 56.0951 93.7336 57.3008 93.1448 57.673C92.5553 58.0456 92.3593 58.1695 92.4129 58.4353C92.4841 58.8254 92.7696 58.8079 93.2696 58.7368C93.9659 58.6129 97.7324 56.946 97.8928 52.8683C98.1608 47.656 93.1624 41.9651 84.3263 42.0183V42.0183ZM18.7789 63.967C15.9583 67.0162 12.0314 68.1687 10.3356 67.1938C8.5149 66.1475 9.22884 61.6443 12.6918 58.4178C14.798 56.4499 17.5114 54.6233 19.3144 53.5067C19.7248 53.2584 20.3319 52.904 21.0639 52.4607C21.1887 52.3896 21.2603 52.3543 21.2603 52.3543L21.6886 52.0881C22.9557 56.6978 21.7422 60.758 18.7789 63.967V63.967ZM39.3072 50.1027C38.3253 52.4786 36.2726 58.5596 35.0231 58.2228C33.952 57.9391 33.2913 53.3295 34.8088 48.7731C35.5763 46.4857 37.2006 43.7555 38.1469 42.692C39.682 40.9898 41.3778 40.4222 41.7882 41.1142C42.3061 42.0183 39.9139 48.6134 39.3072 50.1027V50.1027ZM56.2474 58.1517C55.8367 58.3646 55.4443 58.5064 55.2655 58.4C55.1407 58.3289 55.4443 58.0452 55.4443 58.0452C55.4443 58.0452 57.5685 55.7761 58.4072 54.7477C58.8896 54.145 59.4603 53.436 60.0675 52.6379V52.8683C60.0675 55.5811 57.4253 57.4072 56.247 58.1517H56.2474ZM69.3139 55.191C69.0104 54.9781 69.064 54.269 70.0815 52.0528C70.4743 51.184 71.4022 49.7304 72.9912 48.3298C73.1696 48.897 73.2948 49.4468 73.2768 49.9609C73.2588 53.3827 70.7958 54.6591 69.3139 55.191Z" fill="#CD6799"/>
</g>
<defs>
<clipPath id="clip0_148737_1306">
<rect width="98" height="73" fill="white"/>
</clipPath>
</defs>
</svg>
