<svg width="107" height="107" viewBox="0 0 107 107" fill="none" xmlns="http://www.w3.org/2000/svg">
<path d="M19.7348 90.9533L12.2214 6.6875H94.7786L87.2552 90.94L53.4499 100.312L19.7348 90.9533Z" fill="#E44F26"/>
<path d="M53.5 93.1502L80.8184 85.5766L87.2451 13.579H53.5V93.1502Z" fill="#F1662A"/>
<path d="M53.5 44.8296H39.8241L38.8811 34.2467H53.5V23.9111H27.5859L27.8334 26.6864L30.3713 55.1652H53.5V44.8296V44.8296ZM53.5 71.6699L53.4532 71.6833L41.944 68.5769L41.2084 60.3346H30.8327L32.2806 76.5585L53.4532 82.4368L53.5 82.4234V71.6699Z" fill="#EBEBEB"/>
<path d="M53.4632 44.8296V55.1652H66.1895L64.9925 68.5703L53.4632 71.6799V82.4334L74.6526 76.5585L74.8064 74.813L77.2339 47.6049L77.4881 44.8296H53.4632V44.8296ZM53.4632 23.9111V34.2467H78.4277L78.635 31.9261L79.1064 26.6864L79.3539 23.9111H53.4632V23.9111Z" fill="white"/>
</svg>
